{"asset":{"version":"2.0","generator":"Blockbench 4.10.1 glTF exporter"},"scenes":[{"nodes":[22],"name":"blockbench_export"}],"scene":0,"nodes":[{"translation":[1,0,-2.75],"name":"552a5cfa-3187-2198-ac8a-1fe33a7d8469"},{"translation":[1,0,-2.75],"name":"ef063ebd-36dd-60f5-b2c4-1643adc62f44"},{"translation":[1,0,-2.75],"name":"6293e57d-f7b4-3d64-053c-9dc1dbbcaa2d"},{"translation":[1,0,-2.75],"name":"49ba1cec-3f6b-0686-e0a8-2229db392a50"},{"translation":[1,0,-2.75],"name":"d06517e9-deab-c4f6-7e42-0217ab81213f"},{"translation":[1,0,-2.75],"name":"942fcf52-fd3c-d116-1ad5-bf9037ef9100"},{"translation":[1,0,-2.75],"name":"2b4453f1-bf37-504b-b0dc-adcd12f6eadf"},{"translation":[1,0,-2.75],"name":"4273a6c9-6de8-27dc-d5bb-104b16ed9429"},{"translation":[1,0,-2.75],"name":"42e49de4-025d-d22a-0ee1-7d5ba3ec6ee4"},{"translation":[1,0,-2.75],"name":"72d53e38-4fde-498a-854c-d264ab033e4d"},{"translation":[1,0,-2.75],"name":"61b9aead-a0c2-5fed-c470-4b8a22736cb9"},{"translation":[1,0,-2.75],"name":"6fece576-bd86-9c66-b74b-5880b385db95"},{"translation":[1,0,-2.75],"name":"6b4fb61d-3ad9-9615-5ee6-eddcc62e4cc8"},{"translation":[1,0,-2.75],"name":"55310268-3530-d9b7-29b7-1b74b8ac6963"},{"translation":[-6.946286628989817e-17,-0.4264334862385321,0.0018179582452685361],"name":"pot","mesh":0},{"translation":[1.7273307508942186e-17,-0.4264334862385321,0.0018179582452685361],"name":"soil","mesh":1},{"translation":[6.946286628989817e-17,0.4264334862385321,-0.06431795824526854],"name":"Pot","children":[14,15]},{"translation":[-0.0003865979381443301,-0.14176868556701028,0.002319587628865951],"name":"Stem","mesh":2},{"rotation":[-0.023563104363606903,0.10628629522559757,0.12975038868036604,0.9855520484465854],"translation":[0.217262418137653,0.005173127051135151,-0.013558090749589044],"name":"Left Leaf","mesh":3},{"rotation":[0.10814224501460559,0.9855384979013673,-0.055998679263731255,-0.11782729699961535],"translation":[0.098512418137653,0.017673127051135107,0.005191909250410957],"name":"Left Leaf","mesh":4},{"translation":[-0.1564191953362587,0.06953026600301293,0.0016371844276974253],"name":"Leaves","children":[18,19]},{"translation":[0.0003865979381443301,0.5167686855670103,-0.002319587628865951],"name":"Seedling","children":[17,20]},{"children":[0,1,2,3,4,5,6,7,8,9,10,11,12,13,16,21]}],"bufferViews":[{"buffer":0,"byteOffset":0,"byteLength":5616,"target":34962,"byteStride":12},{"buffer":0,"byteOffset":5616,"byteLength":5616,"target":34962,"byteStride":12},{"buffer":0,"byteOffset":11232,"byteLength":3744,"target":34962,"byteStride":8},{"buffer":0,"byteOffset":14976,"byteLength":1368,"target":34963},{"buffer":0,"byteOffset":16344,"byteLength":3216,"target":34962,"byteStride":12},{"buffer":0,"byteOffset":19560,"byteLength":3216,"target":34962,"byteStride":12},{"buffer":0,"byteOffset":22776,"byteLength":2144,"target":34962,"byteStride":8},{"buffer":0,"byteOffset":24920,"byteLength":720,"target":34963},{"buffer":0,"byteOffset":25640,"byteLength":9504,"target":34962,"byteStride":12},{"buffer":0,"byteOffset":35144,"byteLength":9504,"target":34962,"byteStride":12},{"buffer":0,"byteOffset":44648,"byteLength":6336,"target":34962,"byteStride":8},{"buffer":0,"byteOffset":50984,"byteLength":2304,"target":34963},{"buffer":0,"byteOffset":53288,"byteLength":1776,"target":34962,"byteStride":12},{"buffer":0,"byteOffset":55064,"byteLength":1776,"target":34962,"byteStride":12},{"buffer":0,"byteOffset":56840,"byteLength":1184,"target":34962,"byteStride":8},{"buffer":0,"byteOffset":58024,"byteLength":348,"target":34963},{"buffer":0,"byteOffset":58372,"byteLength":1776,"target":34962,"byteStride":12},{"buffer":0,"byteOffset":60148,"byteLength":1776,"target":34962,"byteStride":12},{"buffer":0,"byteOffset":61924,"byteLength":1184,"target":34962,"byteStride":8},{"buffer":0,"byteOffset":63108,"byteLength":348,"target":34963}],"buffers":[{"byteLength":63456,"uri":"data:application/octet-stream;base64,"}],"accessors":[{"bufferView":0,"componentType":5126,"count":468,"max":[0.5291566252708435,0.5625,0.5291566252708435],"min":[-0.5291566252708435,0,-0.5291566252708435],"type":"VEC3"},{"bufferView":1,"componentType":5126,"count":468,"max":[1,1,1],"min":[-1,-1,-1],"type":"VEC3"},{"bufferView":2,"componentType":5126,"count":468,"max":[0.9032156467437744,0.6999619007110596],"min":[0.00014337112952489406,0],"type":"VEC2"},{"bufferView":3,"componentType":5123,"count":684,"max":[467],"min":[0],"type":"SCALAR"},{"bufferView":4,"componentType":5126,"count":268,"max":[0.46875,0.4625000059604645,0.44999998807907104],"min":[-0.46875,0.3125,-0.46875],"type":"VEC3"},{"bufferView":5,"componentType":5126,"count":268,"max":[0.8259519338607788,1,0.9799211621284485],"min":[-0.8259519338607788,-1,-0.9203309416770935],"type":"VEC3"},{"bufferView":6,"componentType":5126,"count":268,"max":[0.5313958525657654,0.43420130014419556],"min":[0.08224392682313919,0],"type":"VEC2"},{"bufferView":7,"componentType":5123,"count":360,"max":[267],"min":[0],"type":"SCALAR"},{"bufferView":8,"componentType":5126,"count":792,"max":[0.015625,0.26875001192092896,0.012500000186264515],"min":[-0.00937500037252903,0,-0.015625],"type":"VEC3"},{"bufferView":9,"componentType":5126,"count":792,"max":[1,0.6246950626373291,1],"min":[-1,-1,-1],"type":"VEC3"},{"bufferView":10,"componentType":5126,"count":792,"max":[0.41378751397132874,0.4676820635795593],"min":[0.014075935818254948,0],"type":"VEC2"},{"bufferView":11,"componentType":5123,"count":1152,"max":[791],"min":[0],"type":"SCALAR"},{"bufferView":12,"componentType":5126,"count":148,"max":[0.07334435731172562,0.009518688544631004,0.03180164471268654],"min":[-0.0597287081182003,-0.01241287961602211,-0.03486989811062813],"type":"VEC3"},{"bufferView":13,"componentType":5126,"count":148,"max":[0.472526490688324,0.9992733001708984,0.9999817609786987],"min":[-0.9349802136421204,-0.9996516704559326,-0.9820582270622253],"type":"VEC3"},{"bufferView":14,"componentType":5126,"count":148,"max":[0.4419437646865845,0.44018125534057617],"min":[0,0],"type":"VEC2"},{"bufferView":15,"componentType":5123,"count":174,"max":[147],"min":[0],"type":"SCALAR"},{"bufferView":16,"componentType":5126,"count":148,"max":[0.07334435731172562,0.009518688544631004,0.03180164471268654],"min":[-0.0597287081182003,-0.01241287961602211,-0.03486989811062813],"type":"VEC3"},{"bufferView":17,"componentType":5126,"count":148,"max":[0.472526490688324,0.9992733001708984,0.9999817609786987],"min":[-0.9349802136421204,-0.9996516704559326,-0.9820582270622253],"type":"VEC3"},{"bufferView":18,"componentType":5126,"count":148,"max":[0.4419437646865845,0.44018125534057617],"min":[0,0],"type":"VEC2"},{"bufferView":19,"componentType":5123,"count":174,"max":[147],"min":[0],"type":"SCALAR"}],"materials":[{"pbrMetallicRoughness":{"metallicFactor":0,"roughnessFactor":1,"baseColorTexture":{"index":0}},"alphaMode":"MASK","alphaCutoff":0.05,"doubleSided":true},{"pbrMetallicRoughness":{"metallicFactor":0,"roughnessFactor":1,"baseColorTexture":{"index":1}},"alphaMode":"MASK","alphaCutoff":0.05,"doubleSided":true},{"pbrMetallicRoughness":{"metallicFactor":0,"roughnessFactor":1,"baseColorTexture":{"index":2}},"alphaMode":"MASK","alphaCutoff":0.05,"doubleSided":true},{"pbrMetallicRoughness":{"metallicFactor":0,"roughnessFactor":1,"baseColorTexture":{"index":3}},"alphaMode":"MASK","alphaCutoff":0.05,"doubleSided":true}],"textures":[{"sampler":0,"source":0,"name":"pot"},{"sampler":1,"source":1,"name":"dry_soil"},{"sampler":2,"source":2,"name":"Stem"},{"sampler":3,"source":3,"name":"Leaf"}],"samplers":[{"magFilter":9728,"minFilter":9728,"wrapS":33071,"wrapT":33071},{"magFilter":9728,"minFilter":9728,"wrapS":33071,"wrapT":33071},{"magFilter":9728,"minFilter":9728,"wrapS":33071,"wrapT":33071},{"magFilter":9728,"minFilter":9728,"wrapS":33071,"wrapT":33071}],"images":[{"mimeType":"image/png","uri":"data:image/png;base64,"},{"mimeType":"image/png","uri":"data:image/png;base64,"},{"mimeType":"image/png","uri":"data:image/png;base64,"},{"mimeType":"image/png","uri":"data:image/png;base64,"}],"meshes":[{"primitives":[{"mode":4,"attributes":{"POSITION":0,"NORMAL":1,"TEXCOORD_0":2},"indices":3,"material":0}]},{"primitives":[{"mode":4,"attributes":{"POSITION":4,"NORMAL":5,"TEXCOORD_0":6},"indices":7,"material":1}]},{"primitives":[{"mode":4,"attributes":{"POSITION":8,"NORMAL":9,"TEXCOORD_0":10},"indices":11,"material":2}]},{"primitives":[{"mode":4,"attributes":{"POSITION":12,"NORMAL":13,"TEXCOORD_0":14},"indices":15,"material":3}]},{"primitives":[{"mode":4,"attributes":{"POSITION":16,"NORMAL":17,"TEXCOORD_0":18},"indices":19,"material":3}]}]}