{"asset":{"version":"2.0","generator":"Blockbench 4.10.1 glTF exporter"},"scenes":[{"nodes":[11],"name":"blockbench_export"}],"scene":0,"nodes":[{"translation":[-1.3892573257979634e-16,-0.8528669724770642,0.0036359164905370722],"name":"pot","mesh":0},{"translation":[3.454661501788437e-17,-0.8528669724770642,0.0036359164905370722],"name":"soil","mesh":1},{"translation":[1.3892573257979634e-16,0.8528669724770642,-0.12863591649053707],"name":"Pot","children":[0,1]},{"translation":[0.06504035852092273,-0.8329441572423166,-0.12151901209848488],"name":"Stem","mesh":2},{"rotation":[-0.11109264063701534,-0.543917847527955,-0.037989049561378,0.830884247323461],"translation":[0.125,-0.17499999999999982,-0.02500000000000001],"name":"Left Leaf","mesh":3},{"rotation":[0.10814224501460559,0.9855384979013673,-0.055998679263731255,-0.11782729699961535],"translation":[-0.08750000000000001,-0.375,-0.11250000000000002],"name":"Left Leaf","mesh":4},{"rotation":[-0.06521080506931738,0.03148358877049308,-0.10285012463917041,0.9920575519605954],"translation":[0.21250000000000002,-0.375,-0.11250000000000002],"name":"Left Leaf","mesh":5},{"rotation":[0.04684650867031351,0.8307042163913754,-0.11240997225105699,0.543230989205798],"translation":[0,-0.125,-0.23750000000000002],"name":"Left Leaf","mesh":6},{"rotation":[-0.1172848349975446,-0.8553158067365393,-0.005384397397507415,0.5046287214288216],"name":"Left Leaf","mesh":7},{"name":"SecondStageLeaves","children":[4,5,6,7,8]},{"translation":[-0.06504035852092273,1.5829441572423166,0.12151901209848488],"name":"StemSecondStage","children":[3,9]},{"children":[2,10]}],"bufferViews":[{"buffer":0,"byteOffset":0,"byteLength":5616,"target":34962,"byteStride":12},{"buffer":0,"byteOffset":5616,"byteLength":5616,"target":34962,"byteStride":12},{"buffer":0,"byteOffset":11232,"byteLength":3744,"target":34962,"byteStride":8},{"buffer":0,"byteOffset":14976,"byteLength":1368,"target":34963},{"buffer":0,"byteOffset":16344,"byteLength":3216,"target":34962,"byteStride":12},{"buffer":0,"byteOffset":19560,"byteLength":3216,"target":34962,"byteStride":12},{"buffer":0,"byteOffset":22776,"byteLength":2144,"target":34962,"byteStride":8},{"buffer":0,"byteOffset":24920,"byteLength":720,"target":34963},{"buffer":0,"byteOffset":25640,"byteLength":15024,"target":34962,"byteStride":12},{"buffer":0,"byteOffset":40664,"byteLength":15024,"target":34962,"byteStride":12},{"buffer":0,"byteOffset":55688,"byteLength":10016,"target":34962,"byteStride":8},{"buffer":0,"byteOffset":65704,"byteLength":3684,"target":34963},{"buffer":0,"byteOffset":69388,"byteLength":1656,"target":34962,"byteStride":12},{"buffer":0,"byteOffset":71044,"byteLength":1656,"target":34962,"byteStride":12},{"buffer":0,"byteOffset":72700,"byteLength":1104,"target":34962,"byteStride":8},{"buffer":0,"byteOffset":73804,"byteLength":300,"target":34963},{"buffer":0,"byteOffset":74104,"byteLength":1776,"target":34962,"byteStride":12},{"buffer":0,"byteOffset":75880,"byteLength":1776,"target":34962,"byteStride":12},{"buffer":0,"byteOffset":77656,"byteLength":1184,"target":34962,"byteStride":8},{"buffer":0,"byteOffset":78840,"byteLength":348,"target":34963},{"buffer":0,"byteOffset":79188,"byteLength":1776,"target":34962,"byteStride":12},{"buffer":0,"byteOffset":80964,"byteLength":1776,"target":34962,"byteStride":12},{"buffer":0,"byteOffset":82740,"byteLength":1184,"target":34962,"byteStride":8},{"buffer":0,"byteOffset":83924,"byteLength":348,"target":34963},{"buffer":0,"byteOffset":84272,"byteLength":1776,"target":34962,"byteStride":12},{"buffer":0,"byteOffset":86048,"byteLength":1776,"target":34962,"byteStride":12},{"buffer":0,"byteOffset":87824,"byteLength":1184,"target":34962,"byteStride":8},{"buffer":0,"byteOffset":89008,"byteLength":348,"target":34963},{"buffer":0,"byteOffset":89356,"byteLength":1776,"target":34962,"byteStride":12},{"buffer":0,"byteOffset":91132,"byteLength":1776,"target":34962,"byteStride":12},{"buffer":0,"byteOffset":92908,"byteLength":1184,"target":34962,"byteStride":8},{"buffer":0,"byteOffset":94092,"byteLength":348,"target":34963}],"buffers":[{"byteLength":94440,"uri":"data:application/octet-stream;base64,"}],"accessors":[{"bufferView":0,"componentType":5126,"count":468,"max":[1.058313250541687,1.125,1.058313250541687],"min":[-1.058313250541687,0,-1.058313250541687],"type":"VEC3"},{"bufferView":1,"componentType":5126,"count":468,"max":[1,1,1],"min":[-1,-1,-1],"type":"VEC3"},{"bufferView":2,"componentType":5126,"count":468,"max":[0.9032156467437744,0.6999619007110596],"min":[0.00014337112952489406,0],"type":"VEC2"},{"bufferView":3,"componentType":5123,"count":684,"max":[467],"min":[0],"type":"SCALAR"},{"bufferView":4,"componentType":5126,"count":268,"max":[0.9375,0.925000011920929,0.8999999761581421],"min":[-0.9375,0.625,-0.9375],"type":"VEC3"},{"bufferView":5,"componentType":5126,"count":268,"max":[0.8259519338607788,1,0.9799211621284485],"min":[-0.8259519338607788,-1,-0.9203309416770935],"type":"VEC3"},{"bufferView":6,"componentType":5126,"count":268,"max":[0.5313958525657654,0.43420130014419556],"min":[0.08224392682313919,0],"type":"VEC2"},{"bufferView":7,"componentType":5123,"count":360,"max":[267],"min":[0],"type":"SCALAR"},{"bufferView":8,"componentType":5126,"count":1252,"max":[0.03125,0.949999988079071,0.03125],"min":[-0.03125,0,-0.03125],"type":"VEC3"},{"bufferView":9,"componentType":5126,"count":1252,"max":[1,0.6246950626373291,1],"min":[-1,-1,-1],"type":"VEC3"},{"bufferView":10,"componentType":5126,"count":1252,"max":[0.6031249761581421,0.6348437070846558],"min":[0.018252279609441757,0],"type":"VEC2"},{"bufferView":11,"componentType":5123,"count":1842,"max":[1251],"min":[0],"type":"SCALAR"},{"bufferView":12,"componentType":5126,"count":138,"max":[0.10747209191322327,0.015325807966291904,0.05840092524886131],"min":[-0.10070741176605225,-0.00898495502769947,-0.07256399840116501],"type":"VEC3"},{"bufferView":13,"componentType":5126,"count":138,"max":[1,1,0.5827488899230957],"min":[-0.2872120141983032,-1,-0.48578202724456787],"type":"VEC3"},{"bufferView":14,"componentType":5126,"count":138,"max":[0.4375,0.44018125534057617],"min":[0,0],"type":"VEC2"},{"bufferView":15,"componentType":5123,"count":150,"max":[137],"min":[0],"type":"SCALAR"},{"bufferView":16,"componentType":5126,"count":148,"max":[0.1547122299671173,0.01903737708926201,0.07641437649726868],"min":[-0.14445741474628448,-0.07989685237407684,-0.0822397992014885],"type":"VEC3"},{"bufferView":17,"componentType":5126,"count":148,"max":[0.6008718609809875,0.9994847774505615,0.9997293949127197],"min":[-0.9349425435066223,-0.9997530579566956,-0.9820693731307983],"type":"VEC3"},{"bufferView":18,"componentType":5126,"count":148,"max":[0.4419437646865845,0.44018125534057617],"min":[0,0],"type":"VEC2"},{"bufferView":19,"componentType":5123,"count":174,"max":[147],"min":[0],"type":"SCALAR"},{"bufferView":20,"componentType":5126,"count":148,"max":[0.1547122299671173,0.03116661123931408,0.07795074582099915],"min":[-0.14445741474628448,-0.07989685237407684,-0.07916706055402756],"type":"VEC3"},{"bufferView":21,"componentType":5126,"count":148,"max":[0.6008718609809875,0.9993142485618591,0.9989149570465088],"min":[-0.955999493598938,-0.9997530579566956,-0.9851781725883484],"type":"VEC3"},{"bufferView":22,"componentType":5126,"count":148,"max":[0.4419437646865845,0.44018125534057617],"min":[0,0],"type":"VEC2"},{"bufferView":23,"componentType":5123,"count":174,"max":[147],"min":[0],"type":"SCALAR"},{"bufferView":24,"componentType":5126,"count":148,"max":[0.1363186091184616,0.03116661123931408,0.06063259020447731],"min":[-0.12883241474628448,-0.02482575923204422,-0.06973979622125626],"type":"VEC3"},{"bufferView":25,"componentType":5126,"count":148,"max":[0.5919507741928101,0.9993452429771423,0.9998997449874878],"min":[-0.9270069003105164,-0.999684751033783,-0.9794568419456482],"type":"VEC3"},{"bufferView":26,"componentType":5126,"count":148,"max":[0.4419437646865845,0.44018125534057617],"min":[0,0],"type":"VEC2"},{"bufferView":27,"componentType":5123,"count":174,"max":[147],"min":[0],"type":"SCALAR"},{"bufferView":28,"componentType":5126,"count":148,"max":[0.1363186091184616,0.03116661123931408,0.06063259020447731],"min":[-0.12883241474628448,-0.02482575923204422,-0.06973979622125626],"type":"VEC3"},{"bufferView":29,"componentType":5126,"count":148,"max":[0.5919507741928101,0.9993452429771423,0.9998997449874878],"min":[-0.9270069003105164,-0.999684751033783,-0.9794568419456482],"type":"VEC3"},{"bufferView":30,"componentType":5126,"count":148,"max":[0.4419437646865845,0.44018125534057617],"min":[0,0],"type":"VEC2"},{"bufferView":31,"componentType":5123,"count":174,"max":[147],"min":[0],"type":"SCALAR"}],"materials":[{"pbrMetallicRoughness":{"metallicFactor":0,"roughnessFactor":1,"baseColorTexture":{"index":0}},"alphaMode":"MASK","alphaCutoff":0.05,"doubleSided":true},{"pbrMetallicRoughness":{"metallicFactor":0,"roughnessFactor":1,"baseColorTexture":{"index":1}},"alphaMode":"MASK","alphaCutoff":0.05,"doubleSided":true},{"pbrMetallicRoughness":{"metallicFactor":0,"roughnessFactor":1,"baseColorTexture":{"index":2}},"alphaMode":"MASK","alphaCutoff":0.05,"doubleSided":true},{"pbrMetallicRoughness":{"metallicFactor":0,"roughnessFactor":1,"baseColorTexture":{"index":3}},"alphaMode":"MASK","alphaCutoff":0.05,"doubleSided":true}],"textures":[{"sampler":0,"source":0,"name":"pot"},{"sampler":1,"source":1,"name":"dry_soil"},{"sampler":2,"source":2,"name":"stem_2nd_stage"},{"sampler":3,"source":3,"name":"Leaf"}],"samplers":[{"magFilter":9728,"minFilter":9728,"wrapS":33071,"wrapT":33071},{"magFilter":9728,"minFilter":9728,"wrapS":33071,"wrapT":33071},{"magFilter":9728,"minFilter":9728,"wrapS":33071,"wrapT":33071},{"magFilter":9728,"minFilter":9728,"wrapS":33071,"wrapT":33071}],"images":[{"mimeType":"image/png","uri":"data:image/png;base64,"},{"mimeType":"image/png","uri":"data:image/png;base64,"},{"mimeType":"image/png","uri":"data:image/png;base64,"},{"mimeType":"image/png","uri":"data:image/png;base64,"}],"meshes":[{"primitives":[{"mode":4,"attributes":{"POSITION":0,"NORMAL":1,"TEXCOORD_0":2},"indices":3,"material":0}]},{"primitives":[{"mode":4,"attributes":{"POSITION":4,"NORMAL":5,"TEXCOORD_0":6},"indices":7,"material":1}]},{"primitives":[{"mode":4,"attributes":{"POSITION":8,"NORMAL":9,"TEXCOORD_0":10},"indices":11,"material":2}]},{"primitives":[{"mode":4,"attributes":{"POSITION":12,"NORMAL":13,"TEXCOORD_0":14},"indices":15,"material":3}]},{"primitives":[{"mode":4,"attributes":{"POSITION":16,"NORMAL":17,"TEXCOORD_0":18},"indices":19,"material":3}]},{"primitives":[{"mode":4,"attributes":{"POSITION":20,"NORMAL":21,"TEXCOORD_0":22},"indices":23,"material":3}]},{"primitives":[{"mode":4,"attributes":{"POSITION":24,"NORMAL":25,"TEXCOORD_0":26},"indices":27,"material":3}]},{"primitives":[{"mode":4,"attributes":{"POSITION":28,"NORMAL":29,"TEXCOORD_0":30},"indices":31,"material":3}]}]}