{"asset":{"version":"2.0","generator":"Blockbench 4.10.1 glTF exporter"},"scenes":[{"nodes":[15],"name":"blockbench_export"}],"scene":0,"nodes":[{"translation":[-0.060152040185370334,1.7076828240233297,-0.1484648477267298],"name":"Tomato"},{"translation":[-3,-0.8528669724770642,0.0036359164905370722],"name":"pot","mesh":0},{"translation":[-3,-0.8528669724770642,0.0036359164905370722],"name":"soil","mesh":1},{"translation":[1.3892573257979634e-16,0.8528669724770642,-0.12863591649053707],"name":"Pot","children":[1,2]},{"rotation":[-0.11109264063701534,-0.543917847527955,-0.037989049561378,0.830884247323461],"translation":[-2.875,-0.17499999999999982,-0.02500000000000001],"name":"Left Leaf","mesh":2},{"rotation":[0.10814224501460559,0.9855384979013673,-0.055998679263731255,-0.11782729699961535],"translation":[-3.0875,-0.375,-0.11250000000000002],"name":"Left Leaf","mesh":3},{"rotation":[-0.06521080506931738,0.03148358877049308,-0.10285012463917041,0.9920575519605954],"translation":[-2.7874999999999996,-0.375,-0.11250000000000002],"name":"Left Leaf","mesh":4},{"rotation":[0.04684650867031351,0.8307042163913754,-0.11240997225105699,0.543230989205798],"translation":[-3,-0.125,-0.23750000000000002],"name":"Left Leaf","mesh":5},{"rotation":[-0.1172848349975446,-0.8553158067365393,-0.005384397397507415,0.5046287214288216],"translation":[-3,0,0],"name":"Left Leaf","mesh":6},{"rotation":[-0.06521080506931738,0.03148358877049308,-0.10285012463917041,0.9920575519605954],"translation":[-2.7874999999999996,0,-0.11250000000000002],"name":"Left Leaf","mesh":7},{"rotation":[0.04684650867031351,0.8307042163913754,-0.11240997225105699,0.543230989205798],"translation":[-3,0.25,-0.23750000000000002],"name":"Left Leaf","mesh":8},{"rotation":[-0.1172848349975446,-0.8553158067365393,-0.005384397397507415,0.5046287214288216],"translation":[-3,0.375,0],"name":"Left Leaf","mesh":9},{"name":"SecondStageLeaves","children":[4,5,6,7,8,9,10,11]},{"translation":[-2.922459641479077,-0.6329441572423167,-0.7465190120984849],"name":"Stem_selection","mesh":10},{"translation":[-0.06504035852092273,1.5829441572423166,0.12151901209848488],"name":"StemSecondStage","children":[12,13]},{"children":[0,3,14]}],"bufferViews":[{"buffer":0,"byteOffset":0,"byteLength":5616,"target":34962,"byteStride":12},{"buffer":0,"byteOffset":5616,"byteLength":5616,"target":34962,"byteStride":12},{"buffer":0,"byteOffset":11232,"byteLength":3744,"target":34962,"byteStride":8},{"buffer":0,"byteOffset":14976,"byteLength":1368,"target":34963},{"buffer":0,"byteOffset":16344,"byteLength":3216,"target":34962,"byteStride":12},{"buffer":0,"byteOffset":19560,"byteLength":3216,"target":34962,"byteStride":12},{"buffer":0,"byteOffset":22776,"byteLength":2144,"target":34962,"byteStride":8},{"buffer":0,"byteOffset":24920,"byteLength":720,"target":34963},{"buffer":0,"byteOffset":25640,"byteLength":1224,"target":34962,"byteStride":12},{"buffer":0,"byteOffset":26864,"byteLength":1224,"target":34962,"byteStride":12},{"buffer":0,"byteOffset":28088,"byteLength":816,"target":34962,"byteStride":8},{"buffer":0,"byteOffset":28904,"byteLength":204,"target":34963},{"buffer":0,"byteOffset":29108,"byteLength":1776,"target":34962,"byteStride":12},{"buffer":0,"byteOffset":30884,"byteLength":1776,"target":34962,"byteStride":12},{"buffer":0,"byteOffset":32660,"byteLength":1184,"target":34962,"byteStride":8},{"buffer":0,"byteOffset":33844,"byteLength":348,"target":34963},{"buffer":0,"byteOffset":34192,"byteLength":1776,"target":34962,"byteStride":12},{"buffer":0,"byteOffset":35968,"byteLength":1776,"target":34962,"byteStride":12},{"buffer":0,"byteOffset":37744,"byteLength":1184,"target":34962,"byteStride":8},{"buffer":0,"byteOffset":38928,"byteLength":348,"target":34963},{"buffer":0,"byteOffset":39276,"byteLength":1776,"target":34962,"byteStride":12},{"buffer":0,"byteOffset":41052,"byteLength":1776,"target":34962,"byteStride":12},{"buffer":0,"byteOffset":42828,"byteLength":1184,"target":34962,"byteStride":8},{"buffer":0,"byteOffset":44012,"byteLength":348,"target":34963},{"buffer":0,"byteOffset":44360,"byteLength":1776,"target":34962,"byteStride":12},{"buffer":0,"byteOffset":46136,"byteLength":1776,"target":34962,"byteStride":12},{"buffer":0,"byteOffset":47912,"byteLength":1184,"target":34962,"byteStride":8},{"buffer":0,"byteOffset":49096,"byteLength":348,"target":34963},{"buffer":0,"byteOffset":49444,"byteLength":1776,"target":34962,"byteStride":12},{"buffer":0,"byteOffset":51220,"byteLength":1776,"target":34962,"byteStride":12},{"buffer":0,"byteOffset":52996,"byteLength":1184,"target":34962,"byteStride":8},{"buffer":0,"byteOffset":54180,"byteLength":348,"target":34963},{"buffer":0,"byteOffset":54528,"byteLength":1776,"target":34962,"byteStride":12},{"buffer":0,"byteOffset":56304,"byteLength":1776,"target":34962,"byteStride":12},{"buffer":0,"byteOffset":58080,"byteLength":1184,"target":34962,"byteStride":8},{"buffer":0,"byteOffset":59264,"byteLength":348,"target":34963},{"buffer":0,"byteOffset":59612,"byteLength":1776,"target":34962,"byteStride":12},{"buffer":0,"byteOffset":61388,"byteLength":1776,"target":34962,"byteStride":12},{"buffer":0,"byteOffset":63164,"byteLength":1184,"target":34962,"byteStride":8},{"buffer":0,"byteOffset":64348,"byteLength":348,"target":34963},{"buffer":0,"byteOffset":64696,"byteLength":22944,"target":34962,"byteStride":12},{"buffer":0,"byteOffset":87640,"byteLength":22944,"target":34962,"byteStride":12},{"buffer":0,"byteOffset":110584,"byteLength":15296,"target":34962,"byteStride":8},{"buffer":0,"byteOffset":125880,"byteLength":5652,"target":34963}],"buffers":[{"byteLength":131532,"uri":"data:application/octet-stream;base64,"}],"accessors":[{"bufferView":0,"componentType":5126,"count":468,"max":[3.9333133697509766,1.125,1.058313250541687],"min":[1.816686749458313,0,-1.058313250541687],"type":"VEC3"},{"bufferView":1,"componentType":5126,"count":468,"max":[1,1,1],"min":[-1,-1,-1],"type":"VEC3"},{"bufferView":2,"componentType":5126,"count":468,"max":[0.9032156467437744,0.6999619007110596],"min":[0.00014337112952489406,0],"type":"VEC2"},{"bufferView":3,"componentType":5123,"count":684,"max":[467],"min":[0],"type":"SCALAR"},{"bufferView":4,"componentType":5126,"count":268,"max":[3.8125,0.925000011920929,0.8999999761581421],"min":[1.9375,0.625,-0.9375],"type":"VEC3"},{"bufferView":5,"componentType":5126,"count":268,"max":[0.8259519338607788,1,0.9799211621284485],"min":[-0.8259519338607788,-1,-0.9203309416770935],"type":"VEC3"},{"bufferView":6,"componentType":5126,"count":268,"max":[0.5313958525657654,0.43420130014419556],"min":[0.08224392682313919,0],"type":"VEC2"},{"bufferView":7,"componentType":5123,"count":360,"max":[267],"min":[0],"type":"SCALAR"},{"bufferView":8,"componentType":5126,"count":102,"max":[1.2730557918548584,0.5442669987678528,-2.5159456729888916],"min":[1.0648763179779053,0.5199562311172485,-2.6469106674194336],"type":"VEC3"},{"bufferView":9,"componentType":5126,"count":102,"max":[0.2655625343322754,1,0.5827488899230957],"min":[-0.2872120141983032,-1,-0.48578202724456787],"type":"VEC3"},{"bufferView":10,"componentType":5126,"count":102,"max":[0.4375,0.3356124758720398],"min":[0.02482985518872738,0],"type":"VEC2"},{"bufferView":11,"componentType":5123,"count":102,"max":[101],"min":[0],"type":"SCALAR"},{"bufferView":12,"componentType":5126,"count":148,"max":[-2.573214054107666,0.5939233899116516,-0.6261157989501953],"min":[-2.8723838329315186,0.4949891269207001,-0.7847699522972107],"type":"VEC3"},{"bufferView":13,"componentType":5126,"count":148,"max":[0.6008718609809875,0.9994847774505615,0.9997293949127197],"min":[-0.9349425435066223,-0.9997530579566956,-0.9820693731307983],"type":"VEC3"},{"bufferView":14,"componentType":5126,"count":148,"max":[0.4419437646865845,0.44018125534057617],"min":[0,0],"type":"VEC2"},{"bufferView":15,"componentType":5123,"count":174,"max":[147],"min":[0],"type":"SCALAR"},{"bufferView":16,"componentType":5126,"count":148,"max":[2.963188409805298,0.606052577495575,0.2961084544658661],"min":[2.6640186309814453,0.4949891269207001,0.13899065554141998],"type":"VEC3"},{"bufferView":17,"componentType":5126,"count":148,"max":[0.6008718609809875,0.9993142485618591,0.9989149570465088],"min":[-0.955999493598938,-0.9997530579566956,-0.9851781725883484],"type":"VEC3"},{"bufferView":18,"componentType":5126,"count":148,"max":[0.4419437646865845,0.44018125534057617],"min":[0,0],"type":"VEC2"},{"bufferView":19,"componentType":5123,"count":174,"max":[147],"min":[0],"type":"SCALAR"},{"bufferView":20,"componentType":5126,"count":148,"max":[-1.029237985610962,0.606052577495575,2.625122547149658],"min":[-1.294389009475708,0.5500602126121521,2.4947502613067627],"type":"VEC3"},{"bufferView":21,"componentType":5126,"count":148,"max":[0.5919507741928101,0.9993452429771423,0.9998997449874878],"min":[-0.9270069003105164,-0.999684751033783,-0.9794568419456482],"type":"VEC3"},{"bufferView":22,"componentType":5126,"count":148,"max":[0.4419437646865845,0.44018125534057617],"min":[0,0],"type":"VEC2"},{"bufferView":23,"componentType":5123,"count":174,"max":[147],"min":[0],"type":"SCALAR"},{"bufferView":24,"componentType":5126,"count":148,"max":[-1.195347547531128,0.6236045956611633,-2.4175336360931396],"min":[-1.460498571395874,0.5676122307777405,-2.547905921936035],"type":"VEC3"},{"bufferView":25,"componentType":5126,"count":148,"max":[0.5617988109588623,0.9993452429771423,0.9998997449874878],"min":[-0.9270069003105164,-0.999684751033783,-0.9794568419456482],"type":"VEC3"},{"bufferView":26,"componentType":5126,"count":148,"max":[0.4419437646865845,0.44018125534057617],"min":[0,0],"type":"VEC2"},{"bufferView":27,"componentType":5123,"count":174,"max":[147],"min":[0],"type":"SCALAR"},{"bufferView":28,"componentType":5126,"count":148,"max":[2.963188409805298,0.606052577495575,0.2961084544658661],"min":[2.6640186309814453,0.4949891269207001,0.13899065554141998],"type":"VEC3"},{"bufferView":29,"componentType":5126,"count":148,"max":[0.6008718609809875,0.9993142485618591,0.9989149570465088],"min":[-0.955999493598938,-0.9997530579566956,-0.9851781725883484],"type":"VEC3"},{"bufferView":30,"componentType":5126,"count":148,"max":[0.4419437646865845,0.44018125534057617],"min":[0,0],"type":"VEC2"},{"bufferView":31,"componentType":5123,"count":174,"max":[147],"min":[0],"type":"SCALAR"},{"bufferView":32,"componentType":5126,"count":148,"max":[-1.029237985610962,0.5939873456954956,2.631803035736084],"min":[-1.294389009475708,0.5499962568283081,2.497720956802368],"type":"VEC3"},{"bufferView":33,"componentType":5126,"count":148,"max":[0.6660248637199402,0.9993452429771423,0.9998997449874878],"min":[-0.9270069003105164,-0.999684751033783,-0.9952567219734192],"type":"VEC3"},{"bufferView":34,"componentType":5126,"count":148,"max":[0.4419437646865845,0.44018125534057617],"min":[0,0],"type":"VEC2"},{"bufferView":35,"componentType":5123,"count":174,"max":[147],"min":[0],"type":"SCALAR"},{"bufferView":36,"componentType":5126,"count":148,"max":[-1.2002274990081787,0.6236045956611633,-2.4175336360931396],"min":[-1.460498571395874,0.5488765835762024,-2.547905921936035],"type":"VEC3"},{"bufferView":37,"componentType":5126,"count":148,"max":[0.5919507741928101,0.9993452429771423,0.9998997449874878],"min":[-0.9270069003105164,-0.999684751033783,-0.9794568419456482],"type":"VEC3"},{"bufferView":38,"componentType":5126,"count":148,"max":[0.4419437646865845,0.44018125534057617],"min":[0,0],"type":"VEC2"},{"bufferView":39,"componentType":5123,"count":174,"max":[147],"min":[0],"type":"SCALAR"},{"bufferView":40,"componentType":5126,"count":1912,"max":[2.9224510192871094,1.0750000476837158,0.668749988079071],"min":[2.7292206287384033,-0.20000000298023224,0.5104706287384033],"type":"VEC3"},{"bufferView":41,"componentType":5126,"count":1912,"max":[1,0.9909051060676575,1],"min":[-1,-1,-1],"type":"VEC3"},{"bufferView":42,"componentType":5126,"count":1912,"max":[0.7166691422462463,0.9280874729156494],"min":[0,0],"type":"VEC2"},{"bufferView":43,"componentType":5123,"count":2826,"max":[1911],"min":[0],"type":"SCALAR"}],"materials":[{"pbrMetallicRoughness":{"metallicFactor":0,"roughnessFactor":1,"baseColorTexture":{"index":0}},"alphaMode":"MASK","alphaCutoff":0.05,"doubleSided":true},{"pbrMetallicRoughness":{"metallicFactor":0,"roughnessFactor":1,"baseColorTexture":{"index":1}},"alphaMode":"MASK","alphaCutoff":0.05,"doubleSided":true},{"pbrMetallicRoughness":{"metallicFactor":0,"roughnessFactor":1,"baseColorTexture":{"index":2}},"alphaMode":"MASK","alphaCutoff":0.05,"doubleSided":true},{"pbrMetallicRoughness":{"metallicFactor":0,"roughnessFactor":1,"baseColorTexture":{"index":3}},"alphaMode":"MASK","alphaCutoff":0.05,"doubleSided":true}],"textures":[{"sampler":0,"source":0,"name":"pot"},{"sampler":1,"source":1,"name":"dry_soil"},{"sampler":2,"source":2,"name":"Leaf"},{"sampler":3,"source":3,"name":"stem_second_stage"}],"samplers":[{"magFilter":9728,"minFilter":9728,"wrapS":33071,"wrapT":33071},{"magFilter":9728,"minFilter":9728,"wrapS":33071,"wrapT":33071},{"magFilter":9728,"minFilter":9728,"wrapS":33071,"wrapT":33071},{"magFilter":9728,"minFilter":9728,"wrapS":33071,"wrapT":33071}],"images":[{"mimeType":"image/png","uri":"data:image/png;base64,"},{"mimeType":"image/png","uri":"data:image/png;base64,"},{"mimeType":"image/png","uri":"data:image/png;base64,"},{"mimeType":"image/png","uri":"data:image/png;base64,"}],"meshes":[{"primitives":[{"mode":4,"attributes":{"POSITION":0,"NORMAL":1,"TEXCOORD_0":2},"indices":3,"material":0}]},{"primitives":[{"mode":4,"attributes":{"POSITION":4,"NORMAL":5,"TEXCOORD_0":6},"indices":7,"material":1}]},{"primitives":[{"mode":4,"attributes":{"POSITION":8,"NORMAL":9,"TEXCOORD_0":10},"indices":11,"material":2}]},{"primitives":[{"mode":4,"attributes":{"POSITION":12,"NORMAL":13,"TEXCOORD_0":14},"indices":15,"material":2}]},{"primitives":[{"mode":4,"attributes":{"POSITION":16,"NORMAL":17,"TEXCOORD_0":18},"indices":19,"material":2}]},{"primitives":[{"mode":4,"attributes":{"POSITION":20,"NORMAL":21,"TEXCOORD_0":22},"indices":23,"material":2}]},{"primitives":[{"mode":4,"attributes":{"POSITION":24,"NORMAL":25,"TEXCOORD_0":26},"indices":27,"material":2}]},{"primitives":[{"mode":4,"attributes":{"POSITION":28,"NORMAL":29,"TEXCOORD_0":30},"indices":31,"material":2}]},{"primitives":[{"mode":4,"attributes":{"POSITION":32,"NORMAL":33,"TEXCOORD_0":34},"indices":35,"material":2}]},{"primitives":[{"mode":4,"attributes":{"POSITION":36,"NORMAL":37,"TEXCOORD_0":38},"indices":39,"material":2}]},{"primitives":[{"mode":4,"attributes":{"POSITION":40,"NORMAL":41,"TEXCOORD_0":42},"indices":43,"material":3}]}]}