{"asset":{"version":"2.0","generator":"Blockbench 4.10.1 glTF exporter"},"scenes":[{"nodes":[19],"name":"blockbench_export"}],"scene":0,"nodes":[{"translation":[-3,-0.8528669724770642,0.0036359164905370722],"name":"pot","mesh":0},{"translation":[-3,-0.8528669724770642,0.0036359164905370722],"name":"soil","mesh":1},{"translation":[1.3892573257979634e-16,0.8528669724770642,-0.12863591649053707],"name":"Pot","children":[0,1]},{"rotation":[-0.1172848349975446,-0.8553158067365393,-0.005384397397507415,0.5046287214288216],"translation":[-3,0,0],"name":"Left Leaf","mesh":2},{"rotation":[0.006884610361753751,-0.5716491455785517,-0.1376199214206354,0.808845234719014],"translation":[-0.07130015060347987,-0.1761751299452714,0.2969733110265375],"name":"Left Leaf","mesh":3},{"rotation":[0.10814224501460559,0.9855384979013673,-0.055998679263731255,-0.11782729699961535],"translation":[-3.1125000000000003,-0.375,-0.08750000000000002],"name":"Left Leaf","mesh":4},{"rotation":[0.04684650867031351,0.8307042163913754,-0.11240997225105699,0.543230989205798],"translation":[-2.9875,-0.125,-0.275],"name":"Left Leaf","mesh":5},{"rotation":[0.04684650867031351,0.8307042163913754,-0.11240997225105699,0.543230989205798],"translation":[-3,0.25,-0.2625],"name":"Left Leaf","mesh":6},{"rotation":[-0.1172848349975446,-0.8553158067365393,-0.005384397397507415,0.5046287214288216],"translation":[-2.9875,0.375,0.012499999999999997],"name":"Left Leaf","mesh":7},{"rotation":[-0.06521080506931738,0.03148358877049308,-0.10285012463917041,0.9920575519605954],"translation":[-2.749999999999999,0,-0.12500000000000003],"name":"Left Leaf","mesh":8},{"rotation":[-0.11109264063701534,-0.543917847527955,-0.037989049561378,0.830884247323461],"translation":[-2.8625,-0.17499999999999982,-1.3877787807814457e-17],"name":"Left Leaf","mesh":9},{"rotation":[-0.06521080506931738,0.03148358877049308,-0.10285012463917041,0.9920575519605954],"translation":[-2.7624999999999993,-0.38749999999999996,-0.15000000000000002],"name":"Left Leaf","mesh":10},{"name":"FruitingLeaves","children":[3,4,5,6,7,8,9,10,11]},{"translation":[-2.922459641479077,-0.6329441572423167,-0.7465190120984849],"name":"Stem_selection","mesh":11},{"translation":[-0.06504035852092273,1.5829441572423166,0.12151901209848488],"name":"StemFruiting","children":[12,13]},{"rotation":[0.16391155143124836,-0.0737162695680884,-0.07221892007096294,0.9810623540286062],"name":"Tomato","mesh":12},{"rotation":[-0.0049913569191868505,-0.06051168044480764,-0.14879407362192187,0.9870024045263744],"translation":[-0.2500000000000001,-0.2499999999999991,0.075],"name":"Tomato","mesh":13},{"rotation":[0.010754175462934447,-0.006777597796586883,0.047416004675922614,0.998794340381839],"translation":[-0.025000000000000078,-0.4624999999999988,0.30000000000000004],"name":"Tomato","mesh":14},{"translation":[-0.060152040185370334,1.7076828240233297,-0.1484648477267298],"name":"Tomato","children":[15,16,17]},{"children":[2,14,18]}],"bufferViews":[{"buffer":0,"byteOffset":0,"byteLength":5616,"target":34962,"byteStride":12},{"buffer":0,"byteOffset":5616,"byteLength":5616,"target":34962,"byteStride":12},{"buffer":0,"byteOffset":11232,"byteLength":3744,"target":34962,"byteStride":8},{"buffer":0,"byteOffset":14976,"byteLength":1368,"target":34963},{"buffer":0,"byteOffset":16344,"byteLength":3216,"target":34962,"byteStride":12},{"buffer":0,"byteOffset":19560,"byteLength":3216,"target":34962,"byteStride":12},{"buffer":0,"byteOffset":22776,"byteLength":2144,"target":34962,"byteStride":8},{"buffer":0,"byteOffset":24920,"byteLength":720,"target":34963},{"buffer":0,"byteOffset":25640,"byteLength":1776,"target":34962,"byteStride":12},{"buffer":0,"byteOffset":27416,"byteLength":1776,"target":34962,"byteStride":12},{"buffer":0,"byteOffset":29192,"byteLength":1184,"target":34962,"byteStride":8},{"buffer":0,"byteOffset":30376,"byteLength":348,"target":34963},{"buffer":0,"byteOffset":30724,"byteLength":1224,"target":34962,"byteStride":12},{"buffer":0,"byteOffset":31948,"byteLength":1224,"target":34962,"byteStride":12},{"buffer":0,"byteOffset":33172,"byteLength":816,"target":34962,"byteStride":8},{"buffer":0,"byteOffset":33988,"byteLength":204,"target":34963},{"buffer":0,"byteOffset":34192,"byteLength":1776,"target":34962,"byteStride":12},{"buffer":0,"byteOffset":35968,"byteLength":1776,"target":34962,"byteStride":12},{"buffer":0,"byteOffset":37744,"byteLength":1184,"target":34962,"byteStride":8},{"buffer":0,"byteOffset":38928,"byteLength":348,"target":34963},{"buffer":0,"byteOffset":39276,"byteLength":1776,"target":34962,"byteStride":12},{"buffer":0,"byteOffset":41052,"byteLength":1776,"target":34962,"byteStride":12},{"buffer":0,"byteOffset":42828,"byteLength":1184,"target":34962,"byteStride":8},{"buffer":0,"byteOffset":44012,"byteLength":348,"target":34963},{"buffer":0,"byteOffset":44360,"byteLength":1776,"target":34962,"byteStride":12},{"buffer":0,"byteOffset":46136,"byteLength":1776,"target":34962,"byteStride":12},{"buffer":0,"byteOffset":47912,"byteLength":1184,"target":34962,"byteStride":8},{"buffer":0,"byteOffset":49096,"byteLength":348,"target":34963},{"buffer":0,"byteOffset":49444,"byteLength":1776,"target":34962,"byteStride":12},{"buffer":0,"byteOffset":51220,"byteLength":1776,"target":34962,"byteStride":12},{"buffer":0,"byteOffset":52996,"byteLength":1184,"target":34962,"byteStride":8},{"buffer":0,"byteOffset":54180,"byteLength":348,"target":34963},{"buffer":0,"byteOffset":54528,"byteLength":1776,"target":34962,"byteStride":12},{"buffer":0,"byteOffset":56304,"byteLength":1776,"target":34962,"byteStride":12},{"buffer":0,"byteOffset":58080,"byteLength":1184,"target":34962,"byteStride":8},{"buffer":0,"byteOffset":59264,"byteLength":348,"target":34963},{"buffer":0,"byteOffset":59612,"byteLength":1224,"target":34962,"byteStride":12},{"buffer":0,"byteOffset":60836,"byteLength":1224,"target":34962,"byteStride":12},{"buffer":0,"byteOffset":62060,"byteLength":816,"target":34962,"byteStride":8},{"buffer":0,"byteOffset":62876,"byteLength":204,"target":34963},{"buffer":0,"byteOffset":63080,"byteLength":1776,"target":34962,"byteStride":12},{"buffer":0,"byteOffset":64856,"byteLength":1776,"target":34962,"byteStride":12},{"buffer":0,"byteOffset":66632,"byteLength":1184,"target":34962,"byteStride":8},{"buffer":0,"byteOffset":67816,"byteLength":348,"target":34963},{"buffer":0,"byteOffset":68164,"byteLength":22800,"target":34962,"byteStride":12},{"buffer":0,"byteOffset":90964,"byteLength":22800,"target":34962,"byteStride":12},{"buffer":0,"byteOffset":113764,"byteLength":15200,"target":34962,"byteStride":8},{"buffer":0,"byteOffset":128964,"byteLength":5628,"target":34963},{"buffer":0,"byteOffset":134592,"byteLength":4200,"target":34962,"byteStride":12},{"buffer":0,"byteOffset":138792,"byteLength":4200,"target":34962,"byteStride":12},{"buffer":0,"byteOffset":142992,"byteLength":2800,"target":34962,"byteStride":8},{"buffer":0,"byteOffset":145792,"byteLength":984,"target":34963},{"buffer":0,"byteOffset":146776,"byteLength":4200,"target":34962,"byteStride":12},{"buffer":0,"byteOffset":150976,"byteLength":4200,"target":34962,"byteStride":12},{"buffer":0,"byteOffset":155176,"byteLength":2800,"target":34962,"byteStride":8},{"buffer":0,"byteOffset":157976,"byteLength":984,"target":34963},{"buffer":0,"byteOffset":158960,"byteLength":4200,"target":34962,"byteStride":12},{"buffer":0,"byteOffset":163160,"byteLength":4200,"target":34962,"byteStride":12},{"buffer":0,"byteOffset":167360,"byteLength":2800,"target":34962,"byteStride":8},{"buffer":0,"byteOffset":170160,"byteLength":984,"target":34963}],"buffers":[{"byteLength":171144,"uri":"data:application/octet-stream;base64,"}],"accessors":[{"bufferView":0,"componentType":5126,"count":468,"max":[3.9333133697509766,1.125,1.058313250541687],"min":[1.816686749458313,0,-1.058313250541687],"type":"VEC3"},{"bufferView":1,"componentType":5126,"count":468,"max":[1,1,1],"min":[-1,-1,-1],"type":"VEC3"},{"bufferView":2,"componentType":5126,"count":468,"max":[0.9032156467437744,0.6999619007110596],"min":[0.00014337112952489406,0],"type":"VEC2"},{"bufferView":3,"componentType":5123,"count":684,"max":[467],"min":[0],"type":"SCALAR"},{"bufferView":4,"componentType":5126,"count":268,"max":[3.8125,0.925000011920929,0.8999999761581421],"min":[1.9375,0.625,-0.9375],"type":"VEC3"},{"bufferView":5,"componentType":5126,"count":268,"max":[0.8259519338607788,1,0.9799211621284485],"min":[-0.8259519338607788,-1,-0.9203309416770935],"type":"VEC3"},{"bufferView":6,"componentType":5126,"count":268,"max":[0.5313958525657654,0.43420130014419556],"min":[0.08224392682313919,0],"type":"VEC2"},{"bufferView":7,"componentType":5123,"count":360,"max":[267],"min":[0],"type":"SCALAR"},{"bufferView":8,"componentType":5126,"count":148,"max":[-1.1828476190567017,0.6611046195030212,-2.392533540725708],"min":[-1.4729986190795898,0.5301122069358826,-2.572906017303467],"type":"VEC3"},{"bufferView":9,"componentType":5126,"count":148,"max":[0.8198075294494629,0.9971741437911987,0.9998397827148438],"min":[-0.9524250030517578,-0.9986571073532104,-0.967751681804657],"type":"VEC3"},{"bufferView":10,"componentType":5126,"count":148,"max":[0.4419437646865845,0.44018125534057617],"min":[0,0],"type":"VEC2"},{"bufferView":11,"componentType":5123,"count":174,"max":[147],"min":[0],"type":"SCALAR"},{"bufferView":12,"componentType":5126,"count":102,"max":[0.08380119502544403,0.05285416543483734,0.05064047500491142],"min":[-0.07437831163406372,-0.04645659774541855,-0.05532444640994072],"type":"VEC3"},{"bufferView":13,"componentType":5126,"count":102,"max":[0.6989040970802307,1,0.9360584020614624],"min":[-0.7503157258033752,-1,-0.9283478856086731],"type":"VEC3"},{"bufferView":14,"componentType":5126,"count":102,"max":[0.4375,0.3356124758720398],"min":[0.02482985518872738,0],"type":"VEC2"},{"bufferView":15,"componentType":5123,"count":102,"max":[101],"min":[0],"type":"SCALAR"},{"bufferView":16,"componentType":5126,"count":148,"max":[-2.5607142448425293,0.6314233541488647,-0.6011157631874084],"min":[-2.8848838806152344,0.45748913288116455,-0.8097699880599976],"type":"VEC3"},{"bufferView":17,"componentType":5126,"count":148,"max":[0.6739955544471741,0.9987000226974487,0.999601423740387],"min":[-0.9544355869293213,-0.9993836879730225,-0.9739153385162354],"type":"VEC3"},{"bufferView":18,"componentType":5126,"count":148,"max":[0.4419437646865845,0.44018125534057617],"min":[0,0],"type":"VEC2"},{"bufferView":19,"componentType":5123,"count":174,"max":[147],"min":[0],"type":"SCALAR"},{"bufferView":20,"componentType":5126,"count":148,"max":[-1.0167380571365356,0.6435526013374329,2.65012264251709],"min":[-1.3068890571594238,0.512560248374939,2.469750165939331],"type":"VEC3"},{"bufferView":21,"componentType":5126,"count":148,"max":[0.8198075294494629,0.9971741437911987,0.9998397827148438],"min":[-0.9524250030517578,-0.9986571073532104,-0.967751681804657],"type":"VEC3"},{"bufferView":22,"componentType":5126,"count":148,"max":[0.4419437646865845,0.44018125534057617],"min":[0,0],"type":"VEC2"},{"bufferView":23,"componentType":5123,"count":174,"max":[147],"min":[0],"type":"SCALAR"},{"bufferView":24,"componentType":5126,"count":148,"max":[-1.0167380571365356,0.6314873695373535,2.6568028926849365],"min":[-1.3068890571594238,0.5124962329864502,2.4727208614349365],"type":"VEC3"},{"bufferView":25,"componentType":5126,"count":148,"max":[0.8541921377182007,0.9962223768234253,0.9998422265052795],"min":[-0.9517393112182617,-0.9982026815414429,-0.9925640821456909],"type":"VEC3"},{"bufferView":26,"componentType":5126,"count":148,"max":[0.4419437646865845,0.44018125534057617],"min":[0,0],"type":"VEC2"},{"bufferView":27,"componentType":5123,"count":174,"max":[147],"min":[0],"type":"SCALAR"},{"bufferView":28,"componentType":5126,"count":148,"max":[-1.187727451324463,0.6611046195030212,-2.392533540725708],"min":[-1.4729986190795898,0.5113765597343445,-2.572906017303467],"type":"VEC3"},{"bufferView":29,"componentType":5126,"count":148,"max":[0.7762060165405273,0.9979309439659119,0.9998403191566467],"min":[-0.9522820115089417,-0.9990172386169434,-0.9678506255149841],"type":"VEC3"},{"bufferView":30,"componentType":5126,"count":148,"max":[0.4419437646865845,0.44018125534057617],"min":[0,0],"type":"VEC2"},{"bufferView":31,"componentType":5123,"count":174,"max":[147],"min":[0],"type":"SCALAR"},{"bufferView":32,"componentType":5126,"count":148,"max":[2.9756884574890137,0.6435526013374329,0.32110846042633057],"min":[2.6515188217163086,0.45748913288116455,0.1139906495809555],"type":"VEC3"},{"bufferView":33,"componentType":5126,"count":148,"max":[0.6748560667037964,0.9985539317131042,0.9983953833580017],"min":[-0.9696286916732788,-0.999440610408783,-0.9782932996749878],"type":"VEC3"},{"bufferView":34,"componentType":5126,"count":148,"max":[0.4419437646865845,0.44018125534057617],"min":[0,0],"type":"VEC2"},{"bufferView":35,"componentType":5123,"count":174,"max":[147],"min":[0],"type":"SCALAR"},{"bufferView":36,"componentType":5126,"count":102,"max":[1.2855558395385742,0.5817670226097107,-2.490945816040039],"min":[1.0523762702941895,0.482456237077713,-2.6719107627868652],"type":"VEC3"},{"bufferView":37,"componentType":5126,"count":102,"max":[0.6398030519485474,1,0.8520795702934265],"min":[-0.6818157434463501,-1,-0.8411813974380493],"type":"VEC3"},{"bufferView":38,"componentType":5126,"count":102,"max":[0.4375,0.3356124758720398],"min":[0.02482985518872738,0],"type":"VEC2"},{"bufferView":39,"componentType":5123,"count":102,"max":[101],"min":[0],"type":"SCALAR"},{"bufferView":40,"componentType":5126,"count":148,"max":[2.9756884574890137,0.6435526013374329,0.32110846042633057],"min":[2.6515188217163086,0.45748913288116455,0.1139906495809555],"type":"VEC3"},{"bufferView":41,"componentType":5126,"count":148,"max":[0.6748560667037964,0.9985539317131042,0.9983953833580017],"min":[-0.9696286916732788,-0.999440610408783,-0.9782932996749878],"type":"VEC3"},{"bufferView":42,"componentType":5126,"count":148,"max":[0.4419437646865845,0.44018125534057617],"min":[0,0],"type":"VEC2"},{"bufferView":43,"componentType":5123,"count":174,"max":[147],"min":[0],"type":"SCALAR"},{"bufferView":44,"componentType":5126,"count":1900,"max":[2.982282876968384,1.1124999523162842,0.9948897361755371],"min":[2.644085645675659,-0.23749999701976776,0.3815608024597168],"type":"VEC3"},{"bufferView":45,"componentType":5126,"count":1900,"max":[1,0.9628831148147583,1],"min":[-1,-1,-1],"type":"VEC3"},{"bufferView":46,"componentType":5126,"count":1900,"max":[0.7166691422462463,0.9280874729156494],"min":[0,0],"type":"VEC2"},{"bufferView":47,"componentType":5123,"count":2814,"max":[1899],"min":[0],"type":"SCALAR"},{"bufferView":48,"componentType":5126,"count":350,"max":[0.04765203967690468,0.074142225086689,0.05511104315519333],"min":[-0.05234795808792114,-0.09518282115459442,-0.05818134546279907],"type":"VEC3"},{"bufferView":49,"componentType":5126,"count":350,"max":[0.964755654335022,0.8726666569709778,1],"min":[-0.964755654335022,-0.9205617308616638,-1],"type":"VEC3"},{"bufferView":50,"componentType":5126,"count":350,"max":[0.65625,0.65625],"min":[0.0033866188023239374,0],"type":"VEC2"},{"bufferView":51,"componentType":5123,"count":492,"max":[349],"min":[0],"type":"SCALAR"},{"bufferView":52,"componentType":5126,"count":350,"max":[0.04765203967690468,0.074142225086689,0.05511104315519333],"min":[-0.05234795808792114,-0.09518282115459442,-0.05818134546279907],"type":"VEC3"},{"bufferView":53,"componentType":5126,"count":350,"max":[0.964755654335022,0.8726666569709778,1],"min":[-0.964755654335022,-0.9205617308616638,-1],"type":"VEC3"},{"bufferView":54,"componentType":5126,"count":350,"max":[0.65625,0.65625],"min":[0.0033866188023239374,0],"type":"VEC2"},{"bufferView":55,"componentType":5123,"count":492,"max":[349],"min":[0],"type":"SCALAR"},{"bufferView":56,"componentType":5126,"count":350,"max":[0.04765203967690468,0.074142225086689,0.05511104315519333],"min":[-0.05234795808792114,-0.09518282115459442,-0.05818134546279907],"type":"VEC3"},{"bufferView":57,"componentType":5126,"count":350,"max":[0.964755654335022,0.8726666569709778,1],"min":[-0.964755654335022,-0.9205617308616638,-1],"type":"VEC3"},{"bufferView":58,"componentType":5126,"count":350,"max":[0.65625,0.65625],"min":[0.0033866188023239374,0],"type":"VEC2"},{"bufferView":59,"componentType":5123,"count":492,"max":[349],"min":[0],"type":"SCALAR"}],"materials":[{"pbrMetallicRoughness":{"metallicFactor":0,"roughnessFactor":1,"baseColorTexture":{"index":0}},"alphaMode":"MASK","alphaCutoff":0.05,"doubleSided":true},{"pbrMetallicRoughness":{"metallicFactor":0,"roughnessFactor":1,"baseColorTexture":{"index":1}},"alphaMode":"MASK","alphaCutoff":0.05,"doubleSided":true},{"pbrMetallicRoughness":{"metallicFactor":0,"roughnessFactor":1,"baseColorTexture":{"index":2}},"alphaMode":"MASK","alphaCutoff":0.05,"doubleSided":true},{"pbrMetallicRoughness":{"metallicFactor":0,"roughnessFactor":1,"baseColorTexture":{"index":3}},"alphaMode":"MASK","alphaCutoff":0.05,"doubleSided":true},{"pbrMetallicRoughness":{"metallicFactor":0,"roughnessFactor":1,"baseColorTexture":{"index":4}},"alphaMode":"MASK","alphaCutoff":0.05,"doubleSided":true}],"textures":[{"sampler":0,"source":0,"name":"pot"},{"sampler":1,"source":1,"name":"dry_soil"},{"sampler":2,"source":2,"name":"Leaf"},{"sampler":3,"source":3,"name":"stem_second_stage"},{"sampler":4,"source":4,"name":"tomato_fuitling"}],"samplers":[{"magFilter":9728,"minFilter":9728,"wrapS":33071,"wrapT":33071},{"magFilter":9728,"minFilter":9728,"wrapS":33071,"wrapT":33071},{"magFilter":9728,"minFilter":9728,"wrapS":33071,"wrapT":33071},{"magFilter":9728,"minFilter":9728,"wrapS":33071,"wrapT":33071},{"magFilter":9728,"minFilter":9728,"wrapS":33071,"wrapT":33071}],"images":[{"mimeType":"image/png","uri":"data:image/png;base64,"},{"mimeType":"image/png","uri":"data:image/png;base64,"},{"mimeType":"image/png","uri":"data:image/png;base64,"},{"mimeType":"image/png","uri":"data:image/png;base64,"},{"mimeType":"image/png","uri":"data:image/png;base64,"}],"meshes":[{"primitives":[{"mode":4,"attributes":{"POSITION":0,"NORMAL":1,"TEXCOORD_0":2},"indices":3,"material":0}]},{"primitives":[{"mode":4,"attributes":{"POSITION":4,"NORMAL":5,"TEXCOORD_0":6},"indices":7,"material":1}]},{"primitives":[{"mode":4,"attributes":{"POSITION":8,"NORMAL":9,"TEXCOORD_0":10},"indices":11,"material":2}]},{"primitives":[{"mode":4,"attributes":{"POSITION":12,"NORMAL":13,"TEXCOORD_0":14},"indices":15,"material":2}]},{"primitives":[{"mode":4,"attributes":{"POSITION":16,"NORMAL":17,"TEXCOORD_0":18},"indices":19,"material":2}]},{"primitives":[{"mode":4,"attributes":{"POSITION":20,"NORMAL":21,"TEXCOORD_0":22},"indices":23,"material":2}]},{"primitives":[{"mode":4,"attributes":{"POSITION":24,"NORMAL":25,"TEXCOORD_0":26},"indices":27,"material":2}]},{"primitives":[{"mode":4,"attributes":{"POSITION":28,"NORMAL":29,"TEXCOORD_0":30},"indices":31,"material":2}]},{"primitives":[{"mode":4,"attributes":{"POSITION":32,"NORMAL":33,"TEXCOORD_0":34},"indices":35,"material":2}]},{"primitives":[{"mode":4,"attributes":{"POSITION":36,"NORMAL":37,"TEXCOORD_0":38},"indices":39,"material":2}]},{"primitives":[{"mode":4,"attributes":{"POSITION":40,"NORMAL":41,"TEXCOORD_0":42},"indices":43,"material":2}]},{"primitives":[{"mode":4,"attributes":{"POSITION":44,"NORMAL":45,"TEXCOORD_0":46},"indices":47,"material":3}]},{"primitives":[{"mode":4,"attributes":{"POSITION":48,"NORMAL":49,"TEXCOORD_0":50},"indices":51,"material":4}]},{"primitives":[{"mode":4,"attributes":{"POSITION":52,"NORMAL":53,"TEXCOORD_0":54},"indices":55,"material":4}]},{"primitives":[{"mode":4,"attributes":{"POSITION":56,"NORMAL":57,"TEXCOORD_0":58},"indices":59,"material":4}]}]}